<?xml version="1.0" encoding="iso-8859-1"?>
<!-- Generator: Adobe Illustrator 16.0.0, SVG Export Plug-In . SVG Version: 6.00 Build 0)  -->
<!DOCTYPE svg PUBLIC "-//W3C//DTD SVG 1.1//EN" "http://www.w3.org/Graphics/SVG/1.1/DTD/svg11.dtd">
<svg version="1.1" id="Capa_1" xmlns="http://www.w3.org/2000/svg" xmlns:xlink="http://www.w3.org/1999/xlink" x="0px" y="0px"
	 width="151.419px" height="151.419px" viewBox="0 0 151.419 151.419" style="enable-background:new 0 0 151.419 151.419;"
	 xml:space="preserve">
<g>
	<g>
		<polygon points="29.572,64.411 94.333,53.356 91.982,42.88 27.191,53.6 		"/>
		<path d="M39.293,108.667l2.412,10.984l26.399-5.212c0-0.037-0.012-0.062-0.012-0.098v-11.204L39.293,108.667z"/>
		<path d="M35.612,91.934l32.474-5.968v-8.695c0-0.84,0.088-1.662,0.243-2.459l-35.098,6.272L35.612,91.934z"/>
		<path d="M68.086,131.464l-32.76,6.723L13.822,40.024l84.322-13.356l6.681,29.782c1.516-0.106,3.044-0.171,4.572-0.201L96.757,0
			L2.959,13.649l28.659,130.993l36.514-7.588c-0.006-0.158-0.045-0.316-0.045-0.475V131.464z"/>
		<path d="M111.395,114.342c-20.483,0-37.073-6.638-37.073-14.827v14.827c0,8.184,16.59,14.833,37.073,14.833
			c20.472,0,37.065-6.637,37.065-14.833V99.515C148.453,107.705,131.86,114.342,111.395,114.342z"/>
		<path d="M111.395,136.592c-20.483,0-37.073-6.638-37.073-14.833v14.833c0,8.184,16.59,14.827,37.073,14.827
			c20.472,0,37.065-6.631,37.065-14.827v-14.833C148.453,129.955,131.86,136.592,111.395,136.592z"/>
		<path d="M111.395,62.448c-20.483,0-37.073,6.634-37.073,14.823v14.834c0,8.189,16.59,14.833,37.073,14.833
			c20.472,0,37.065-6.638,37.065-14.833V77.271C148.453,69.087,131.86,62.448,111.395,62.448z M111.395,88.39
			c-20.374,0-33.368-6.582-33.368-11.119c0-4.53,12.994-11.121,33.368-11.121c20.368,0,33.363,6.591,33.363,11.121
			C144.758,81.808,131.757,88.39,111.395,88.39z"/>
	</g>
</g>
<g>
</g>
<g>
</g>
<g>
</g>
<g>
</g>
<g>
</g>
<g>
</g>
<g>
</g>
<g>
</g>
<g>
</g>
<g>
</g>
<g>
</g>
<g>
</g>
<g>
</g>
<g>
</g>
<g>
</g>
</svg>
